<svg width="20" height="13" viewBox="0 0 20 13" fill="none" xmlns="http://www.w3.org/2000/svg">
<path d="M15.1055 4.60307C14.9752 4.71122 14.7778 4.61853 14.7778 4.44915V1.08333C14.7778 0.796016 14.6666 0.520466 14.4686 0.317301C14.2707 0.114137 14.0022 0 13.7222 0H1.05556C0.775605 0 0.50712 0.114137 0.309165 0.317301C0.11121 0.520466 0 0.796016 0 1.08333V11.9167C0 12.204 0.11121 12.4795 0.309165 12.6827C0.50712 12.8859 0.775605 13 1.05556 13H13.7222C14.0022 13 14.2707 12.8859 14.4686 12.6827C14.6666 12.4795 14.7778 12.204 14.7778 11.9167V8.55085C14.7778 8.38147 14.9752 8.28878 15.1055 8.39693L19.5084 12.0504C19.7039 12.2127 20 12.0736 20 11.8196V1.18044C20 0.926379 19.7039 0.787333 19.5084 0.949567L15.1055 4.60307Z" fill="white"/>
</svg>
