<svg width="16" height="16" viewBox="0 0 16 16" fill="none" xmlns="http://www.w3.org/2000/svg">
<path d="M3.21778 6.92444C4.49778 9.44 6.56 11.5022 9.07556 12.7822L11.0311 10.8267C11.28 10.5778 11.6267 10.5067 11.9378 10.6044C12.9333 10.9333 14 11.1111 15.1111 11.1111C15.3469 11.1111 15.573 11.2048 15.7397 11.3715C15.9064 11.5382 16 11.7643 16 12V15.1111C16 15.3469 15.9064 15.573 15.7397 15.7397C15.573 15.9064 15.3469 16 15.1111 16C11.1034 16 7.25983 14.4079 4.42594 11.5741C1.59206 8.74017 0 4.89661 0 0.888889C0 0.653141 0.0936505 0.427048 0.260349 0.260349C0.427048 0.0936505 0.653141 0 0.888889 0H4C4.23575 0 4.46184 0.0936505 4.62854 0.260349C4.79524 0.427048 4.88889 0.653141 4.88889 0.888889C4.88889 2 5.06667 3.06667 5.39556 4.06222C5.49333 4.37333 5.42222 4.72 5.17333 4.96889L3.21778 6.92444Z" fill="white"/>
</svg>
