<svg width="40" height="41" viewBox="0 0 40 41" fill="none" xmlns="http://www.w3.org/2000/svg">
<circle cx="20" cy="20.002" r="20" fill="#818BA0"/>
<path d="M29.502 20.8551C29.6815 20.6715 29.8202 20.4559 29.9099 20.2085C30.0568 19.7694 29.9997 19.2585 29.9099 18.979C29.7468 18.524 29.4041 18.1408 28.9554 17.9332L14.711 11.1873C13.7728 10.7403 12.647 11.1315 12.1901 12.0416C11.9617 12.5126 11.9372 13.0554 12.133 13.5344L14.3602 18.9711L27.6093 19.2505C28.5393 19.2664 29.3796 19.9211 29.4939 20.8232C29.502 20.8391 29.502 20.8471 29.502 20.8551Z" fill="white"/>
<path d="M22.6491 23.1941C22.6491 23.1941 22.7797 22.5874 23.3834 22.4357C23.465 21.5895 23.8321 20.8471 24.4358 20.2962C24.5663 20.1765 24.705 20.0807 24.8519 19.9849L14.3603 20.2084L12.1331 25.653C11.7496 26.603 12.2228 27.6808 13.1936 28.056C13.4139 28.1438 13.6505 28.1837 13.8871 28.1837C14.1726 28.1837 14.4582 28.1198 14.7111 28.0001L22.6491 24.24V23.1941Z" fill="white"/>
<path d="M29.812 23.5058H29.2654V22.8267C29.2246 22.1803 28.9391 21.5749 28.4659 21.1331C27.9927 20.6913 27.3727 20.4458 26.7282 20.4458C26.0837 20.4458 25.4636 20.6913 24.9904 21.1331C24.5173 21.5749 24.2317 22.1803 24.1909 22.8267V23.5058H23.6443C23.6199 23.5058 23.5954 23.5058 23.5791 23.514C23.5546 23.5222 23.5383 23.5303 23.522 23.5467C23.5056 23.5631 23.4893 23.5794 23.4812 23.604C23.473 23.6285 23.4648 23.6449 23.4648 23.6694V27.9322C23.473 28.1203 23.5546 28.2922 23.6851 28.4231C23.8238 28.554 24.0033 28.6194 24.1909 28.6113H29.2654C29.453 28.6194 29.6325 28.5458 29.7712 28.4231C29.9099 28.2922 29.9833 28.1203 29.9915 27.9322V23.6694C29.9915 23.6449 29.9833 23.6203 29.9752 23.604C29.967 23.5794 29.9507 23.5631 29.9344 23.5467C29.9181 23.5303 29.8936 23.5222 29.8773 23.514C29.861 23.5058 29.8365 23.5058 29.812 23.5058ZM27.2748 27.0649C27.2748 27.0894 27.2748 27.114 27.2666 27.1385C27.2585 27.1631 27.2421 27.1794 27.2258 27.1958C27.2095 27.2122 27.185 27.2285 27.1606 27.2367C27.1361 27.2449 27.1116 27.2531 27.0871 27.2531H26.361C26.3366 27.2531 26.3121 27.2449 26.2876 27.2367C26.2631 27.2285 26.2468 27.2122 26.2224 27.1958C26.206 27.1794 26.1897 27.1549 26.1816 27.1385C26.1734 27.114 26.1734 27.0894 26.1734 27.0649L26.2876 26.0994C26.1979 26.0422 26.1245 25.9603 26.0673 25.8622C26.0184 25.764 25.9858 25.6576 25.9858 25.5513C25.9939 25.3631 26.0755 25.1913 26.2142 25.0603C26.3529 24.9294 26.5242 24.864 26.7119 24.864C26.8995 24.864 27.079 24.9376 27.2095 25.0603C27.3482 25.1913 27.4216 25.3631 27.4379 25.5513C27.4379 25.6576 27.4135 25.764 27.3564 25.8622C27.3074 25.9603 27.234 26.0422 27.1442 26.0994L27.2748 27.0649ZM28.1803 23.5058H25.276V22.8267C25.3005 22.4585 25.4636 22.1149 25.7329 21.8613C26.0021 21.6076 26.361 21.4685 26.7282 21.4685C27.0953 21.4685 27.4543 21.6076 27.7235 21.8613C27.9927 22.1149 28.1559 22.4585 28.1803 22.8267V23.5058Z" fill="white"/>
</svg>
